<mxfile host="Electron" modified="2024-04-13T08:25:24.389Z" agent="Mozilla/5.0 (Windows NT 10.0; Win64; x64) AppleWebKit/537.36 (KHTML, like Gecko) draw.io/24.1.0 Chrome/120.0.6099.109 Electron/28.1.0 Safari/537.36" etag="nTP4_tHOM056Xfenxndy" version="24.1.0" type="device">
  <diagram name="Page-1" id="dN0TE7tcvxAfwbVcyzP3">
    <mxGraphModel dx="1235" dy="731" grid="1" gridSize="10" guides="1" tooltips="1" connect="1" arrows="1" fold="1" page="1" pageScale="1" pageWidth="850" pageHeight="1100" math="0" shadow="0">
      <root>
        <mxCell id="0" />
        <mxCell id="1" parent="0" />
        <mxCell id="-dy09dPCgnXQRSr9P7LC-3" value="" style="edgeStyle=orthogonalEdgeStyle;rounded=0;orthogonalLoop=1;jettySize=auto;html=1;" edge="1" parent="1" source="-dy09dPCgnXQRSr9P7LC-1" target="-dy09dPCgnXQRSr9P7LC-2">
          <mxGeometry relative="1" as="geometry" />
        </mxCell>
        <mxCell id="-dy09dPCgnXQRSr9P7LC-1" value="START" style="rounded=1;whiteSpace=wrap;html=1;" vertex="1" parent="1">
          <mxGeometry x="365" y="30" width="120" height="60" as="geometry" />
        </mxCell>
        <mxCell id="-dy09dPCgnXQRSr9P7LC-5" value="" style="edgeStyle=orthogonalEdgeStyle;rounded=0;orthogonalLoop=1;jettySize=auto;html=1;" edge="1" parent="1" source="-dy09dPCgnXQRSr9P7LC-2" target="-dy09dPCgnXQRSr9P7LC-4">
          <mxGeometry relative="1" as="geometry" />
        </mxCell>
        <mxCell id="-dy09dPCgnXQRSr9P7LC-2" value="i = 1, say = 0" style="shape=parallelogram;perimeter=parallelogramPerimeter;whiteSpace=wrap;html=1;fixedSize=1;" vertex="1" parent="1">
          <mxGeometry x="290" y="130" width="270" height="60" as="geometry" />
        </mxCell>
        <mxCell id="-dy09dPCgnXQRSr9P7LC-7" value="" style="edgeStyle=orthogonalEdgeStyle;rounded=0;orthogonalLoop=1;jettySize=auto;html=1;" edge="1" parent="1" source="-dy09dPCgnXQRSr9P7LC-4" target="-dy09dPCgnXQRSr9P7LC-6">
          <mxGeometry relative="1" as="geometry" />
        </mxCell>
        <mxCell id="-dy09dPCgnXQRSr9P7LC-16" value="TRUE" style="edgeLabel;html=1;align=center;verticalAlign=middle;resizable=0;points=[];" vertex="1" connectable="0" parent="-dy09dPCgnXQRSr9P7LC-7">
          <mxGeometry x="-0.15" y="-3" relative="1" as="geometry">
            <mxPoint as="offset" />
          </mxGeometry>
        </mxCell>
        <mxCell id="-dy09dPCgnXQRSr9P7LC-19" style="edgeStyle=orthogonalEdgeStyle;rounded=0;orthogonalLoop=1;jettySize=auto;html=1;exitX=0;exitY=0.5;exitDx=0;exitDy=0;" edge="1" parent="1" source="-dy09dPCgnXQRSr9P7LC-4">
          <mxGeometry relative="1" as="geometry">
            <mxPoint x="140" y="290" as="targetPoint" />
          </mxGeometry>
        </mxCell>
        <mxCell id="-dy09dPCgnXQRSr9P7LC-20" value="FALSE" style="edgeLabel;html=1;align=center;verticalAlign=middle;resizable=0;points=[];" vertex="1" connectable="0" parent="-dy09dPCgnXQRSr9P7LC-19">
          <mxGeometry x="0.0217" y="2" relative="1" as="geometry">
            <mxPoint as="offset" />
          </mxGeometry>
        </mxCell>
        <mxCell id="-dy09dPCgnXQRSr9P7LC-4" value="i &amp;lt;= 40" style="shape=hexagon;perimeter=hexagonPerimeter2;whiteSpace=wrap;html=1;fixedSize=1;" vertex="1" parent="1">
          <mxGeometry x="365" y="250" width="120" height="80" as="geometry" />
        </mxCell>
        <mxCell id="-dy09dPCgnXQRSr9P7LC-10" value="" style="edgeStyle=orthogonalEdgeStyle;rounded=0;orthogonalLoop=1;jettySize=auto;html=1;entryX=0.5;entryY=0;entryDx=0;entryDy=0;" edge="1" parent="1" source="-dy09dPCgnXQRSr9P7LC-6">
          <mxGeometry relative="1" as="geometry">
            <mxPoint x="425" y="530" as="targetPoint" />
          </mxGeometry>
        </mxCell>
        <mxCell id="-dy09dPCgnXQRSr9P7LC-11" value="TRUE" style="edgeLabel;html=1;align=center;verticalAlign=middle;resizable=0;points=[];" vertex="1" connectable="0" parent="-dy09dPCgnXQRSr9P7LC-10">
          <mxGeometry x="-0.2" relative="1" as="geometry">
            <mxPoint as="offset" />
          </mxGeometry>
        </mxCell>
        <mxCell id="-dy09dPCgnXQRSr9P7LC-26" style="edgeStyle=orthogonalEdgeStyle;rounded=0;orthogonalLoop=1;jettySize=auto;html=1;exitX=0;exitY=0.5;exitDx=0;exitDy=0;entryX=0;entryY=0.5;entryDx=0;entryDy=0;" edge="1" parent="1" source="-dy09dPCgnXQRSr9P7LC-6" target="-dy09dPCgnXQRSr9P7LC-13">
          <mxGeometry relative="1" as="geometry" />
        </mxCell>
        <mxCell id="-dy09dPCgnXQRSr9P7LC-27" value="FALSE" style="edgeLabel;html=1;align=center;verticalAlign=middle;resizable=0;points=[];" vertex="1" connectable="0" parent="-dy09dPCgnXQRSr9P7LC-26">
          <mxGeometry x="-0.1285" y="-1" relative="1" as="geometry">
            <mxPoint y="1" as="offset" />
          </mxGeometry>
        </mxCell>
        <mxCell id="-dy09dPCgnXQRSr9P7LC-6" value="i % 3 == 0" style="rhombus;whiteSpace=wrap;html=1;" vertex="1" parent="1">
          <mxGeometry x="340" y="370" width="170" height="80" as="geometry" />
        </mxCell>
        <mxCell id="-dy09dPCgnXQRSr9P7LC-15" style="edgeStyle=orthogonalEdgeStyle;rounded=0;orthogonalLoop=1;jettySize=auto;html=1;exitX=1;exitY=0.5;exitDx=0;exitDy=0;entryX=1;entryY=0.5;entryDx=0;entryDy=0;" edge="1" parent="1" source="-dy09dPCgnXQRSr9P7LC-13" target="-dy09dPCgnXQRSr9P7LC-4">
          <mxGeometry relative="1" as="geometry">
            <Array as="points">
              <mxPoint x="590" y="700" />
              <mxPoint x="590" y="290" />
            </Array>
          </mxGeometry>
        </mxCell>
        <mxCell id="-dy09dPCgnXQRSr9P7LC-13" value="i++" style="rounded=0;whiteSpace=wrap;html=1;" vertex="1" parent="1">
          <mxGeometry x="365" y="670" width="120" height="60" as="geometry" />
        </mxCell>
        <mxCell id="-dy09dPCgnXQRSr9P7LC-21" value="END" style="rounded=1;whiteSpace=wrap;html=1;" vertex="1" parent="1">
          <mxGeometry x="20" y="400" width="120" height="60" as="geometry" />
        </mxCell>
        <mxCell id="-dy09dPCgnXQRSr9P7LC-23" style="edgeStyle=orthogonalEdgeStyle;rounded=0;orthogonalLoop=1;jettySize=auto;html=1;exitX=0.5;exitY=1;exitDx=0;exitDy=0;entryX=0.5;entryY=0;entryDx=0;entryDy=0;" edge="1" parent="1" source="-dy09dPCgnXQRSr9P7LC-22" target="-dy09dPCgnXQRSr9P7LC-13">
          <mxGeometry relative="1" as="geometry" />
        </mxCell>
        <mxCell id="-dy09dPCgnXQRSr9P7LC-22" value="say++" style="rounded=0;whiteSpace=wrap;html=1;" vertex="1" parent="1">
          <mxGeometry x="365" y="530" width="120" height="60" as="geometry" />
        </mxCell>
        <mxCell id="-dy09dPCgnXQRSr9P7LC-25" value="" style="edgeStyle=orthogonalEdgeStyle;rounded=0;orthogonalLoop=1;jettySize=auto;html=1;" edge="1" parent="1" source="-dy09dPCgnXQRSr9P7LC-24" target="-dy09dPCgnXQRSr9P7LC-21">
          <mxGeometry relative="1" as="geometry" />
        </mxCell>
        <mxCell id="-dy09dPCgnXQRSr9P7LC-24" value="say" style="shape=document;whiteSpace=wrap;html=1;boundedLbl=1;" vertex="1" parent="1">
          <mxGeometry x="20" y="260" width="120" height="80" as="geometry" />
        </mxCell>
      </root>
    </mxGraphModel>
  </diagram>
</mxfile>
